<svg width="829" height="365" viewBox="0 0 829 365" fill="none" xmlns="http://www.w3.org/2000/svg">
<g clip-path="url(#clip0)">
<path d="M582.37 300.53C585.22 322.87 595.7 343.31 606.88 362.999C607.25 363.669 607.63 364.33 608.02 365H724.22C726.57 364.39 728.89 363.719 731.2 362.999C744.325 359.001 756.715 352.903 767.89 344.941C810.64 314.126 827.09 255.899 819.66 203.724C815.04 171.309 800.82 138.214 773.13 120.756C758.51 111.521 739.73 108.52 722.9 111.951C722.46 112.031 722.02 112.132 721.57 112.222C707.09 115.483 694.19 123.587 686.85 136.643C673.65 160.104 681.51 189.168 688 215.28C694.47 241.392 697.98 272.647 679.2 291.906C685.4 273.647 679.28 251.867 664.47 239.521C653.28 230.207 637.7 226.715 623.49 229.607C622.13 229.897 620.79 230.227 619.47 230.627C616.28 231.562 613.204 232.85 610.3 234.469C588.15 246.845 579.18 275.348 582.37 300.53Z" fill="#F2F2F2"/>
<path d="M651.27 362.999C648.05 363.749 644.82 364.41 641.57 365H659.14C661.44 364.38 663.73 363.719 666 362.999C670.99 361.438 675.904 359.647 680.74 357.627C700.14 349.483 718.01 337.257 731.53 320.989C738.142 313.108 743.542 304.283 747.55 294.807C751.897 284.097 754.659 272.809 755.75 261.301C758.2 237.69 755.7 213.429 751.03 190.238C746.211 166.202 738.431 142.856 727.87 120.736C726.6 118.084 725.287 115.45 723.93 112.832C723.837 112.616 723.696 112.425 723.517 112.272C723.339 112.12 723.128 112.01 722.9 111.951C722.439 111.862 721.96 111.959 721.57 112.222C721.102 112.49 720.755 112.929 720.6 113.446C720.446 113.964 720.496 114.521 720.74 115.003C731.63 136.249 739.884 158.746 745.32 181.994C750.64 204.675 753.66 228.406 752.63 251.727C751.65 273.517 745.96 294.947 733.05 312.765C721.26 329.033 704.98 341.859 686.97 350.593C675.571 356.05 663.596 360.211 651.27 362.999V362.999Z" fill="white"/>
<path d="M612.71 365H617.89C618.47 364.34 619.03 363.669 619.58 362.999C631.379 348.656 639.372 331.568 642.82 313.316C647.008 290.537 643.75 267.016 633.53 246.234C630.679 240.407 627.319 234.843 623.49 229.607C622.13 229.897 620.79 230.227 619.47 230.627C629.542 243.977 636.316 259.52 639.24 275.988C641.849 291.419 640.982 307.239 636.702 322.292C632.421 337.345 624.836 351.252 614.5 362.999C613.92 363.669 613.32 364.34 612.71 365Z" fill="white"/>
<path d="M146.071 347.985C145.318 353.881 142.553 359.276 139.602 364.472C139.504 364.649 139.404 364.823 139.301 365H108.634C108.013 364.839 107.401 364.662 106.792 364.472C103.328 363.417 100.058 361.807 97.1084 359.706C85.8259 351.573 81.4844 336.206 83.4454 322.436C84.6647 313.881 88.4176 305.147 95.7254 300.539C99.6938 298.121 104.428 297.291 108.982 298.216C109.098 298.237 109.214 298.263 109.333 298.287C111.229 298.654 113.025 299.418 114.604 300.528C116.184 301.639 117.51 303.072 118.496 304.732C121.98 310.924 119.906 318.595 118.193 325.486C116.485 332.378 115.559 340.626 120.515 345.709C119.789 343.583 119.641 341.303 120.088 339.101C120.534 336.899 121.559 334.857 123.056 333.182C124.553 331.508 126.469 330.263 128.607 329.575C130.744 328.887 133.026 328.781 135.218 329.267C135.577 329.344 135.931 329.431 136.279 329.537C137.121 329.783 137.933 330.123 138.699 330.55C144.545 333.817 146.912 341.339 146.071 347.985Z" fill="#F2F2F2"/>
<path d="M127.887 364.472C128.736 364.67 129.589 364.844 130.447 365H125.81C125.202 364.836 124.598 364.662 123.999 364.472C122.682 364.06 121.385 363.587 120.109 363.054C114.931 360.951 110.334 357.635 106.704 353.385C104.959 351.305 103.534 348.976 102.476 346.475C101.329 343.648 100.6 340.669 100.312 337.632C99.7862 331.353 100.206 325.031 101.558 318.877C102.83 312.534 104.883 306.372 107.67 300.534C108.006 299.834 108.352 299.139 108.71 298.448C108.735 298.391 108.772 298.341 108.819 298.301C108.866 298.26 108.922 298.231 108.982 298.216C109.104 298.192 109.23 298.218 109.333 298.287C109.457 298.358 109.548 298.474 109.589 298.61C109.63 298.747 109.617 298.894 109.552 299.021C106.678 304.628 104.5 310.566 103.065 316.701C101.587 322.72 100.938 328.911 101.136 335.105C101.241 340.866 103.038 346.468 106.303 351.214C109.478 355.489 113.655 358.917 118.465 361.198C121.473 362.638 124.634 363.736 127.887 364.472Z" fill="white"/>
<path d="M138.063 365H136.696C136.543 364.826 136.395 364.649 136.25 364.472C133.136 360.687 131.027 356.177 130.117 351.36C129.012 345.348 129.871 339.14 132.569 333.656C133.321 332.118 134.208 330.649 135.218 329.267C135.577 329.344 135.931 329.431 136.279 329.537C133.621 333.06 131.833 337.162 131.062 341.508C130.373 345.581 130.602 349.756 131.732 353.728C132.861 357.701 134.863 361.372 137.591 364.472C137.744 364.649 137.902 364.826 138.063 365Z" fill="white"/>
<path d="M422.49 212.608H518.471L519.489 183.083C519.533 181.803 519.299 180.529 518.804 179.348C518.308 178.168 517.563 177.108 516.619 176.243C515.676 175.378 514.556 174.728 513.337 174.337C512.118 173.946 510.828 173.825 509.558 173.98L453.703 180.823H453.697C445.416 180.845 437.482 184.151 431.633 190.015C425.783 195.879 422.496 203.823 422.49 212.108V212.608Z" fill="#F5B121"/>
<path d="M465.269 107.88H532.211C533.102 107.879 533.983 108.055 534.806 108.395C535.628 108.736 536.376 109.236 537.005 109.865C537.635 110.495 538.134 111.243 538.475 112.066C538.815 112.889 538.99 113.771 538.99 114.662V181.635C538.99 182.526 538.815 183.408 538.475 184.231C538.134 185.054 537.635 185.802 537.005 186.431C536.376 187.061 535.628 187.561 534.806 187.901C533.983 188.242 533.102 188.418 532.211 188.417H465.269C464.379 188.418 463.497 188.242 462.675 187.902C461.852 187.561 461.105 187.061 460.475 186.431C459.846 185.802 459.346 185.054 459.006 184.231C458.665 183.408 458.49 182.526 458.49 181.635V114.662C458.49 113.771 458.665 112.889 459.006 112.066C459.346 111.243 459.846 110.495 460.475 109.865C461.105 109.236 461.852 108.736 462.675 108.395C463.497 108.055 464.379 107.879 465.269 107.88V107.88Z" fill="#CCCCCC"/>
<path d="M480.346 157.96L511.952 164.118C513.827 164.481 515.769 164.085 517.352 163.017C518.936 161.949 520.031 160.297 520.398 158.422L522.828 145.94C523.191 144.064 522.795 142.121 521.728 140.537C520.661 138.953 519.009 137.857 517.135 137.489L485.529 131.331C483.654 130.968 481.712 131.364 480.128 132.432C478.545 133.5 477.449 135.152 477.082 137.027L474.652 149.509C474.29 151.385 474.685 153.328 475.752 154.912C476.82 156.497 478.472 157.592 480.346 157.96Z" fill="#3F3D56"/>
<path d="M486.669 143.213L510.79 147.913C511.231 147.999 511.688 147.906 512.061 147.655C512.433 147.403 512.691 147.014 512.777 146.573C512.863 146.131 512.77 145.674 512.519 145.301C512.268 144.928 511.879 144.67 511.437 144.584L487.317 139.885C486.876 139.799 486.418 139.892 486.046 140.143C485.673 140.395 485.415 140.784 485.329 141.225C485.244 141.667 485.336 142.124 485.588 142.497C485.839 142.87 486.228 143.128 486.669 143.213V143.213Z" fill="white"/>
<path d="M491.357 150.173L503.834 152.603C504.275 152.689 504.732 152.597 505.105 152.345C505.477 152.094 505.735 151.705 505.821 151.263C505.907 150.822 505.814 150.364 505.563 149.992C505.312 149.619 504.923 149.361 504.481 149.275L492.005 146.844C491.787 146.802 491.562 146.803 491.344 146.847C491.126 146.891 490.919 146.978 490.734 147.102C490.55 147.227 490.391 147.387 490.268 147.572C490.146 147.758 490.06 147.966 490.018 148.184C489.975 148.403 489.976 148.628 490.02 148.846C490.065 149.064 490.152 149.271 490.276 149.456C490.4 149.641 490.56 149.799 490.745 149.922C490.931 150.045 491.139 150.13 491.357 150.173Z" fill="white"/>
<path d="M458.49 114.662V123.563H538.99V114.662C538.99 113.771 538.815 112.889 538.475 112.066C538.134 111.243 537.635 110.495 537.005 109.865C536.376 109.236 535.628 108.736 534.806 108.395C533.983 108.055 533.102 107.879 532.211 107.88H465.269C464.379 107.879 463.497 108.055 462.675 108.395C461.852 108.736 461.105 109.236 460.475 109.865C459.846 110.495 459.346 111.243 459.006 112.066C458.665 112.889 458.49 113.771 458.49 114.662Z" fill="#B3B3B3"/>
<path d="M297.739 126.351C298.204 124.85 298.992 123.469 300.048 122.306C301.104 121.143 302.402 120.225 303.85 119.618C305.299 119.011 306.863 118.729 308.432 118.792C310.001 118.855 311.538 119.262 312.933 119.983L405.029 86.9248L409.086 109.943L317.282 135.2C315.916 137.465 313.766 139.149 311.241 139.934C308.716 140.719 305.991 140.551 303.582 139.46C301.173 138.369 299.248 136.432 298.171 134.016C297.094 131.6 296.941 128.873 297.739 126.351V126.351Z" fill="#FFB8B8"/>
<path opacity="0.2" d="M297.739 126.351C298.204 124.85 298.992 123.469 300.048 122.306C301.104 121.143 302.402 120.225 303.85 119.618C305.299 119.011 306.863 118.729 308.432 118.792C310.001 118.855 311.538 119.262 312.933 119.983L405.029 86.9248L409.086 109.943L317.282 135.2C315.916 137.465 313.766 139.149 311.241 139.934C308.716 140.719 305.991 140.551 303.582 139.46C301.173 138.369 299.248 136.432 298.171 134.016C297.094 131.6 296.941 128.873 297.739 126.351V126.351Z" fill="black"/>
<path d="M388.683 91.1191L397.379 113.85C397.627 114.497 398.011 115.083 398.505 115.567C398.999 116.052 399.592 116.425 400.243 116.66C400.894 116.895 401.588 116.987 402.278 116.93C402.968 116.872 403.637 116.667 404.24 116.327L425.377 104.425C428.677 103.139 431.332 100.597 432.762 97.3557C434.191 94.1141 434.277 90.4378 433.002 87.1326C431.726 83.8275 429.193 81.1633 425.957 79.724C422.721 78.2848 419.046 78.188 415.739 79.4548L392.137 84.6919C391.461 84.8421 390.826 85.1362 390.274 85.5542C389.722 85.9722 389.267 86.5043 388.939 87.1142C388.611 87.7241 388.418 88.3976 388.374 89.0887C388.33 89.7798 388.435 90.4723 388.683 91.1191V91.1191Z" fill="#F5B121"/>
<path d="M290.49 147.398L323.49 162.405L319.158 178.724C310.791 210.236 308.571 243.066 312.618 275.419V275.419L288.49 280.46L268.49 229.436L275.49 171.409L290.49 147.398Z" fill="#F5B121"/>
<path d="M225.74 222.933C247.422 222.933 265.092 238.703 265.949 258.45H185.531C186.389 238.703 204.058 222.933 225.74 222.933Z" fill="#3F3D56"/>
<path d="M242.619 226.337C243.747 137.196 294.49 145.397 294.49 145.397C294.49 145.397 293.541 173.143 293.085 174.006C260.749 235.215 314.115 306.972 382.045 293.771C383.326 293.522 384.556 293.27 385.736 293.014C394.343 291.216 401.943 286.205 406.989 279.001C412.035 271.797 414.148 262.941 412.9 254.233C406.208 200.472 439.49 201.423 439.49 201.423H488.157L513.43 178.667C514.322 177.864 515.397 177.291 516.562 177C517.726 176.708 518.944 176.707 520.109 176.995C521.274 177.283 522.351 177.853 523.245 178.654C524.139 179.455 524.824 180.462 525.239 181.589L528.49 190.418C528.49 190.418 576.49 195.421 572.49 242.443H557.65C557.686 243.779 557.633 245.116 557.49 246.445L446.739 245.544C440.247 245.491 434.517 250.754 434.49 257.249C434.484 258.83 434.796 260.396 435.408 261.854C436.021 263.312 436.921 264.631 438.054 265.733C439.188 266.835 440.532 267.696 442.007 268.266C443.481 268.836 445.055 269.103 446.635 269.05L464.49 268.455C469.99 292.966 456.49 309.474 441.615 319.854C427.61 329.485 410.992 334.592 393.997 334.486H345.49C282.49 334.486 271.49 281.461 271.49 281.461C238.49 267.454 242.619 226.337 242.619 226.337Z" fill="#3F3D56"/>
<path d="M228.74 363.499C197.674 363.499 172.49 338.303 172.49 307.223C172.49 276.142 197.674 250.947 228.74 250.947C259.806 250.947 284.99 276.142 284.99 307.223C284.99 338.303 259.806 363.499 228.74 363.499Z" fill="#3F3D56"/>
<path d="M228.74 321.016C221.126 321.016 214.953 314.841 214.953 307.223C214.953 299.605 221.126 293.43 228.74 293.43C236.354 293.43 242.527 299.605 242.527 307.223C242.527 314.841 236.354 321.016 228.74 321.016Z" fill="white"/>
<path d="M512.74 363.499C476.98 363.499 447.99 334.496 447.99 298.719C447.99 262.942 476.98 233.939 512.74 233.939C548.501 233.939 577.49 262.942 577.49 298.719C577.49 334.496 548.501 363.499 512.74 363.499Z" fill="#3F3D56"/>
<path d="M512.74 314.596C503.975 314.596 496.87 307.488 496.87 298.719C496.87 289.95 503.975 282.841 512.74 282.841C521.505 282.841 528.61 289.95 528.61 298.719C528.61 307.488 521.505 314.596 512.74 314.596Z" fill="white"/>
<path d="M323.396 166.839L335.27 134.575C335.889 132.893 336.17 131.106 336.099 129.316C336.027 127.525 335.604 125.766 334.853 124.139C334.102 122.513 333.038 121.05 331.722 119.834C330.406 118.619 328.864 117.675 327.183 117.056L293.143 104.519C290.186 103.429 287.043 102.933 283.894 103.059C280.745 103.184 277.652 103.929 274.791 105.251C271.929 106.573 269.356 108.445 267.219 110.762C265.081 113.078 263.42 115.794 262.331 118.752C261.349 121.408 260.848 124.217 260.85 127.049C260.863 130.644 261.676 134.191 263.231 137.433C264.786 140.674 267.043 143.528 269.838 145.787C271.857 147.408 274.127 148.689 276.558 149.578L323.396 166.839Z" fill="#3F3D56"/>
<path d="M261.35 127.048C261.353 130.57 262.145 134.047 263.668 137.222C265.191 140.398 267.406 143.191 270.15 145.397C274.361 144.286 278.279 142.271 281.632 139.492C284.986 136.712 287.694 133.236 289.569 129.304C291.444 125.371 292.44 121.078 292.488 116.722C292.537 112.365 291.637 108.051 289.85 104.078C286.42 103.331 282.867 103.363 279.451 104.171C276.035 104.978 272.843 106.541 270.109 108.744C267.376 110.947 265.17 113.735 263.654 116.902C262.139 120.07 261.351 123.537 261.35 127.048V127.048Z" fill="#F5B121"/>
<path d="M563.99 248.946C556.258 248.946 549.99 241.331 549.99 231.938C549.99 222.544 556.258 214.93 563.99 214.93C571.722 214.93 577.99 222.544 577.99 231.938C577.99 241.331 571.722 248.946 563.99 248.946Z" fill="#F5B121"/>
<path d="M378.929 292.142H366.669L360.836 260.33L378.931 260.331L378.929 292.142Z" fill="#FFB8B8"/>
<path d="M382.056 288.137L357.913 288.136H357.912C355.891 288.136 353.89 288.534 352.023 289.308C350.157 290.082 348.46 291.215 347.032 292.645C345.603 294.074 344.47 295.771 343.696 297.639C342.923 299.507 342.525 301.508 342.525 303.53V304.03L382.056 304.032L382.056 288.137Z" fill="#2F2E41"/>
<path d="M364.699 279.085C364.842 279.085 364.985 279.078 365.129 279.065L382.095 277.829C382.782 277.765 383.444 277.545 384.031 277.184C384.619 276.824 385.116 276.333 385.484 275.751C385.852 275.168 386.081 274.508 386.154 273.823C386.227 273.137 386.142 272.444 385.905 271.797L363.198 220.758C363.036 220.303 362.97 219.819 363.003 219.337C363.037 218.856 363.17 218.386 363.395 217.958C363.618 217.525 363.931 217.144 364.312 216.841C364.693 216.537 365.134 216.318 365.606 216.197C376.283 213.405 403.678 205.97 427.392 197.271C437.552 193.543 443.951 188.157 446.411 181.261C449.654 172.17 444.856 163.879 444.65 163.531L444.489 163.258L422.175 165.288L397.984 167.346L344.97 195.787C340.528 198.191 337.154 202.18 335.52 206.961C333.885 211.741 334.111 216.962 336.152 221.584L360.593 276.417C360.946 277.211 361.522 277.886 362.251 278.359C362.979 278.833 363.83 279.085 364.699 279.085Z" fill="#2F2E41"/>
<path d="M418.295 64.3113C404.73 64.3113 393.734 53.3099 393.734 39.7388C393.734 26.1678 404.73 15.1663 418.295 15.1663C431.859 15.1663 442.856 26.1678 442.856 39.7388C442.856 53.3099 431.859 64.3113 418.295 64.3113Z" fill="#FFB8B8"/>
<path d="M385.929 295.143H373.669L367.836 263.331L385.931 263.332L385.929 295.143Z" fill="#FFB8B8"/>
<path d="M389.056 291.139L364.913 291.138H364.912C362.891 291.138 360.89 291.536 359.023 292.309C357.157 293.083 355.46 294.217 354.032 295.646C352.603 297.076 351.47 298.773 350.696 300.64C349.923 302.508 349.525 304.51 349.525 306.531V307.031L389.056 307.033L389.056 291.139Z" fill="#2F2E41"/>
<path d="M371.699 282.087C371.842 282.087 371.985 282.08 372.129 282.066L389.095 280.83C389.782 280.766 390.444 280.546 391.031 280.186C391.619 279.825 392.116 279.335 392.484 278.752C392.852 278.169 393.081 277.51 393.154 276.824C393.227 276.139 393.142 275.445 392.905 274.798L370.198 223.76C370.036 223.305 369.97 222.821 370.003 222.339C370.037 221.857 370.17 221.387 370.395 220.959C370.618 220.526 370.931 220.146 371.312 219.842C371.693 219.539 372.134 219.32 372.606 219.199C383.283 216.406 410.678 208.971 434.392 200.272C444.552 196.545 450.951 191.158 453.411 184.262C456.654 175.171 451.856 166.88 451.65 166.533L451.489 166.26L429.175 168.289L404.984 170.348L351.97 198.789C347.528 201.192 344.154 205.181 342.52 209.962C340.885 214.742 341.111 219.963 343.152 224.585L367.593 279.418C367.946 280.212 368.522 280.887 369.251 281.361C369.979 281.834 370.83 282.086 371.699 282.087Z" fill="#2F2E41"/>
<path d="M410.72 78.245L436.72 69.2408C436.72 69.2408 453.042 81.7867 445.201 112.91C441.107 128.971 442.3 145.924 448.601 161.253C449.36 163.149 450.234 164.997 451.22 166.786C451.22 166.786 422.22 201.803 395.22 175.791L405.72 125.267C405.72 125.267 389.22 91.7513 410.72 78.245Z" fill="#F5B121"/>
<path d="M415.245 65.147C418.741 59.9123 421.5 52.6536 417.651 47.6729C413.852 42.7565 406.359 43.4808 400.54 41.3053C392.436 38.2752 387.736 28.7501 389.202 20.2198C390.668 11.6894 397.512 4.61806 405.666 1.72467C413.82 -1.16871 423.015 -0.227718 430.999 3.10419C440.829 7.20581 449.26 15.1401 452.796 25.1908C456.332 35.2415 454.442 47.3092 447.107 55.0344C439.243 63.3166 426.901 65.5239 415.484 65.3899" fill="#2F2E41"/>
<path d="M438.092 20.4935C442.497 24.0811 449.217 22.4877 453.946 19.3391C458.674 16.1906 462.511 11.7073 467.627 9.23874C476.646 4.88675 487.551 7.77982 496.328 12.6004C505.106 17.421 512.888 24.0808 522.16 27.8637C531.432 31.6467 543.264 31.8336 550.285 24.6906C552.012 29.6988 552.154 35.1183 550.689 40.2098C549.224 45.3012 546.225 49.8166 542.101 53.1398C537.977 56.4631 532.928 58.4323 527.644 58.7789C522.36 59.1255 517.097 57.8325 512.574 55.0763C502.415 48.885 496.803 35.9036 485.409 32.4864C479.103 30.5954 472.332 32.1184 465.959 33.768C459.586 35.4176 452.942 37.2001 446.51 35.7958C440.079 34.3914 434.063 28.6093 434.881 22.0746L438.092 20.4935Z" fill="#2F2E41"/>
<path d="M298.962 125.35C299.608 123.918 300.56 122.645 301.751 121.621C302.942 120.597 304.344 119.847 305.856 119.423C307.368 118.999 308.955 118.913 310.505 119.169C312.054 119.425 313.528 120.018 314.824 120.906L410.294 99.469L411.48 122.812L317.264 136.544C315.628 138.623 313.287 140.029 310.685 140.496C308.082 140.964 305.399 140.46 303.143 139.08C300.887 137.7 299.215 135.54 298.445 133.01C297.674 130.479 297.858 127.754 298.962 125.35V125.35Z" fill="#FFB8B8"/>
<path d="M393.555 101.613L399.382 125.244C399.548 125.917 399.856 126.545 400.287 127.088C400.717 127.63 401.26 128.073 401.877 128.386C402.494 128.7 403.171 128.877 403.863 128.905C404.555 128.933 405.244 128.812 405.885 128.549L428.327 119.347C431.763 118.481 434.715 116.286 436.535 113.245C438.355 110.204 438.895 106.565 438.036 103.126C437.177 99.6869 434.99 96.7292 431.954 94.9017C428.919 93.0743 425.282 92.5263 421.843 93.3781L397.775 95.6617C397.086 95.7273 396.419 95.9407 395.82 96.2874C395.221 96.6341 394.703 97.1059 394.303 97.6707C393.902 98.2356 393.628 98.8801 393.499 99.5605C393.37 100.241 393.389 100.941 393.555 101.613V101.613Z" fill="#F5B121"/>
<path d="M309.99 143.896C306.124 143.896 302.99 140.761 302.99 136.893C302.99 133.025 306.124 129.89 309.99 129.89C313.856 129.89 316.99 133.025 316.99 136.893C316.99 140.761 313.856 143.896 309.99 143.896Z" fill="#F5B121"/>
<path d="M0 363.999C0.00081235 364.265 0.106402 364.519 0.293762 364.706C0.481123 364.893 0.735033 364.999 1 365H828C828.265 365 828.52 364.895 828.707 364.707C828.895 364.519 829 364.265 829 363.999C829 363.734 828.895 363.48 828.707 363.292C828.52 363.104 828.265 362.999 828 362.999H1C0.735033 363 0.481123 363.106 0.293762 363.293C0.106402 363.48 0.00081235 363.734 0 363.999V363.999Z" fill="#3F3D56"/>
</g>
<defs>
<clipPath id="clip0">
<rect width="829" height="365" fill="white" transform="matrix(-1 0 0 1 829 0)"/>
</clipPath>
</defs>
</svg>
